<?xml version="1.0" standalone="no"?>
<!DOCTYPE svg PUBLIC "-//W3C//DTD SVG 20010904//EN"
 "http://www.w3.org/TR/2001/REC-SVG-20010904/DTD/svg10.dtd">
<svg version="1.0" xmlns="http://www.w3.org/2000/svg"
 width="640.000000pt" height="640.000000pt" viewBox="0 0 640.000000 640.000000"
 preserveAspectRatio="xMidYMid meet">
<metadata>
Created by potrace 1.14, written by Peter Selinger 2001-2017
</metadata>
<g transform="translate(0.000000,640.000000) scale(0.100000,-0.100000)"
fill="#000000" stroke="none">
<path d="M0 6365 l0 -35 1378 0 c757 0 1373 -4 1367 -8 -18 -13 -35 -51 -35
-77 0 -21 5 -25 30 -25 17 0 30 4 30 9 0 5 6 16 14 23 7 8 17 24 20 36 6 17 2
24 -16 31 -14 6 317 9 887 9 501 0 892 -4 870 -8 -59 -9 -26 -18 95 -24 58 -3
110 -6 115 -7 6 -1 29 1 51 5 40 7 41 7 48 -24 4 -21 1 -39 -9 -53 -20 -28
-21 -64 -1 -48 10 9 16 7 26 -5 25 -29 130 -73 130 -53 0 5 -9 9 -19 9 -11 0
-23 5 -26 10 -4 6 -26 20 -51 31 -24 12 -44 27 -44 33 0 7 19 31 41 54 35 35
40 44 29 57 -22 27 32 37 173 32 125 -5 127 -5 127 17 0 12 6 28 12 34 10 10
1 11 -42 6 -30 -3 -71 -7 -90 -8 -19 -1 -47 -6 -62 -10 -17 -5 -53 -2 -95 8
-61 14 -330 15 -2510 16 l-2443 0 0 -35z m4867 -97 c-3 -8 -6 -5 -6 6 -1 11 2
17 5 13 3 -3 4 -12 1 -19z"/>
<path d="M5262 6377 c-44 -47 -38 -47 570 -47 l568 0 0 35 0 35 -558 0 -559 0
-21 -23z"/>
<path d="M863 6313 c9 -2 14 -9 11 -15 -4 -6 2 -5 15 1 29 16 26 21 -11 20
-18 -1 -25 -3 -15 -6z"/>
<path d="M977 6309 c8 -8 16 -8 30 0 16 9 14 10 -11 11 -22 0 -27 -3 -19 -11z"/>
<path d="M1628 6313 c6 -2 18 -2 25 0 6 3 1 5 -13 5 -14 0 -19 -2 -12 -5z"/>
<path d="M2569 6311 c9 -6 10 -11 2 -15 -14 -9 -15 -46 -1 -46 6 0 13 7 16 15
4 8 14 15 23 15 14 1 14 2 -1 14 -10 7 -15 16 -11 19 3 4 -5 7 -18 7 -17 0
-20 -3 -10 -9z"/>
<path d="M3091 6299 c-13 -10 -38 -19 -56 -19 -18 0 -55 -7 -81 -15 -27 -7
-98 -28 -159 -46 -468 -133 -659 -239 -1037 -569 -46 -40 -66 -49 -32 -15 10
9 13 22 9 33 -7 14 -9 13 -15 -8 -4 -17 -13 -25 -28 -24 -11 0 -19 -3 -16 -8
3 -4 2 -8 -3 -8 -4 0 -17 13 -28 29 -10 16 -22 28 -26 25 -4 -2 -12 3 -19 11
-7 8 -21 15 -32 15 -10 0 -21 6 -24 14 -3 9 -12 12 -21 9 -11 -4 -14 -2 -9 5
4 7 1 12 -8 12 -32 0 -23 -18 26 -56 86 -65 142 -120 130 -128 -6 -3 -13 2
-16 11 -4 10 -29 34 -57 53 -28 19 -69 50 -92 68 -42 34 -200 119 -248 132
-15 4 -31 5 -36 1 -6 -3 -40 -56 -76 -116 -82 -137 -121 -178 -213 -222 -87
-41 -93 -54 -95 -187 -1 -57 -4 -80 -8 -61 -6 24 -8 17 -14 -40 -10 -99 -9
-112 7 -112 11 0 12 6 5 24 -5 13 -5 23 -1 23 12 0 32 -78 25 -96 -4 -11 -3
-15 5 -10 21 13 65 -62 70 -117 4 -58 -11 -112 -30 -101 -6 4 -8 3 -4 -4 3 -6
0 -17 -8 -24 -28 -29 -47 -79 -41 -109 9 -39 81 -99 156 -128 35 -15 68 -36
79 -52 20 -26 20 -27 -3 -70 -30 -57 -92 -255 -107 -342 -9 -48 -18 -72 -33
-82 -30 -21 -35 -19 -57 18 -26 42 -25 28 1 -34 18 -40 24 -47 36 -38 7 7 16
9 20 6 3 -4 -4 -64 -16 -134 -64 -392 -54 -644 40 -959 31 -104 31 -106 16
-162 -9 -31 -21 -114 -26 -183 -30 -365 -125 -767 -222 -946 -22 -40 -37 -73
-35 -73 23 0 145 280 190 436 12 39 75 458 86 569 12 123 28 197 41 190 13 -9
69 -163 80 -223 8 -40 7 -73 -2 -121 -13 -72 -139 -453 -186 -566 -36 -85
-111 -203 -173 -269 -39 -43 -41 -46 -12 -25 63 46 180 218 230 339 26 65 87
251 140 427 8 29 18 53 21 53 3 0 7 -136 7 -303 1 -209 7 -340 18 -427 34
-267 41 -360 28 -378 -6 -9 -20 -35 -30 -57 -10 -22 -26 -46 -34 -53 -13 -10
-18 -8 -31 12 -9 13 -19 37 -23 52 -4 16 -18 51 -32 78 -42 86 -51 121 -45
183 5 41 8 52 14 38 4 -11 8 -32 8 -46 2 -52 56 -96 138 -112 30 -6 31 -5 24
20 -6 24 -12 27 -54 28 -27 0 -53 7 -62 16 -32 31 -107 316 -98 374 5 38 5 39
-11 20 -19 -25 -20 -89 -2 -191 8 -44 17 -110 21 -149 5 -47 21 -107 51 -182
24 -62 44 -121 44 -133 0 -11 5 -20 10 -20 15 0 12 -26 -4 -39 -12 -10 -14 -8
-10 11 3 13 -9 -15 -25 -62 -32 -89 -36 -124 -5 -45 10 27 46 78 86 122 37 41
68 84 68 95 0 10 4 16 10 13 20 -12 -3 -541 -24 -562 -4 -5 -56 -9 -114 -9
-214 -3 -420 -82 -571 -219 -47 -44 -191 -244 -191 -267 0 -4 -58 -8 -130 -8
l-130 0 0 -50 0 -50 3200 0 3200 0 0 50 0 50 -57 0 c-52 0 -55 1 -37 15 10 8
14 15 8 15 -15 0 -56 87 -51 108 4 16 5 16 6 -1 0 -10 5 -15 11 -12 5 3 10 1
10 -6 0 -7 2 -10 5 -7 3 3 -4 22 -15 41 -17 29 -19 40 -10 56 14 26 54 37 86
22 19 -9 24 -8 24 4 0 12 -16 15 -76 15 -64 0 -75 -2 -70 -15 3 -8 4 -15 2
-15 -9 0 -75 117 -133 236 -36 77 -91 182 -121 234 -94 163 -219 431 -272 585
-31 90 -110 367 -110 387 0 7 10 29 23 48 13 19 24 49 24 65 l1 30 -13 -31
c-8 -17 -21 -34 -29 -37 -16 -6 -36 64 -56 203 -6 41 -18 117 -26 168 -8 51
-14 102 -14 113 0 27 130 309 142 309 5 0 6 -10 2 -22 -14 -48 -15 -53 -2 -34
30 43 71 86 83 86 21 0 29 -79 22 -214 -7 -130 -41 -314 -83 -446 -32 -103
-26 -116 9 -18 40 114 45 135 67 261 24 141 28 461 8 628 -7 57 -12 154 -11
214 2 118 -5 104 -26 -57 -24 -184 -138 -513 -229 -659 -21 -34 -21 -39 -7
-84 7 -26 17 -73 20 -104 18 -160 108 -571 161 -731 13 -41 26 -82 28 -90 29
-108 118 -303 232 -505 47 -84 137 -275 130 -275 -7 0 -76 108 -76 119 0 12
-127 181 -137 181 -6 0 31 -53 84 -118 24 -30 43 -58 43 -63 0 -5 -58 20 -130
56 -71 36 -130 69 -130 74 0 5 -9 7 -19 4 -11 -3 -45 8 -78 26 -32 16 -79 39
-105 50 -32 13 -48 26 -48 38 -1 10 -7 29 -16 43 l-15 25 6 -25 c4 -14 9 -33
12 -43 4 -16 -1 -18 -42 -15 l-47 3 -47 130 c-26 72 -69 173 -96 225 -59 117
-95 211 -106 270 -7 43 -4 52 76 205 46 88 102 203 125 255 23 52 46 100 52
105 7 7 8 -77 4 -275 -4 -157 -5 -282 -2 -279 3 3 10 138 16 300 14 376 12
352 44 437 26 67 45 97 33 52 -7 -27 -1 -25 19 5 11 17 13 29 6 38 -6 7 -7 34
-2 69 5 31 14 148 20 260 7 112 14 206 16 210 3 4 9 204 15 445 12 541 2 709
-51 818 -5 11 -23 70 -41 130 -17 61 -35 115 -39 120 -4 6 -23 55 -43 110 -19
55 -52 141 -72 190 -41 102 -155 338 -161 332 -2 -2 18 -51 45 -108 65 -140
115 -269 202 -519 101 -291 130 -542 132 -1150 2 -353 0 -388 -26 -608 -15
-129 -36 -259 -46 -290 -41 -127 -122 -343 -164 -439 -65 -149 -210 -391 -312
-523 -20 -25 -42 -58 -50 -75 -9 -16 -24 -41 -35 -55 -11 -14 26 64 81 173
121 237 131 266 169 455 52 263 60 319 70 449 6 80 21 173 40 248 32 125 61
269 79 392 12 78 12 297 1 488 l-6 120 -2 -105 c-8 -402 -102 -880 -219 -1115
-136 -272 -318 -508 -444 -575 -33 -18 -63 -30 -65 -27 -7 7 61 141 80 156 9
8 16 19 16 25 0 6 14 38 30 71 16 33 33 74 36 92 4 20 11 30 19 27 12 -5 19 9
43 81 6 17 27 72 46 123 28 72 33 97 25 115 l-10 22 5 -22 c2 -13 0 -23 -4
-23 -5 0 -11 -15 -15 -33 -4 -17 -13 -41 -19 -52 -7 -11 -23 -54 -35 -95 -31
-103 -33 -107 -38 -93 -2 6 1 29 7 50 38 128 83 369 66 352 -3 -2 -12 -47 -21
-98 -25 -147 -66 -266 -166 -486 -33 -73 -72 -175 -78 -205 -12 -52 -68 -182
-102 -233 -65 -99 -244 -226 -424 -301 -49 -21 -128 -56 -175 -78 -140 -68
-547 -221 -617 -233 -49 -8 -70 2 -198 90 -49 34 -129 83 -176 109 -47 26
-128 79 -180 117 -52 37 -117 84 -145 103 -110 76 -329 319 -361 402 -6 17 -5
17 17 1 14 -9 29 -17 34 -17 17 0 -18 29 -39 32 -103 16 -421 346 -624 648
-153 227 -223 374 -329 695 -6 17 -11 22 -11 13 -1 -10 14 -62 32 -115 19 -54
40 -122 47 -151 6 -28 16 -55 21 -58 5 -3 9 -15 9 -28 0 -12 8 -40 19 -62 10
-21 31 -77 46 -124 61 -188 118 -317 197 -447 98 -161 89 -110 -15 85 -27 51
-46 99 -43 108 3 8 2 12 -4 9 -6 -3 -10 1 -10 10 0 9 5 13 10 10 6 -4 5 5 -2
20 -8 17 -14 22 -19 14 -5 -8 -13 1 -23 26 -9 20 -16 42 -16 47 0 5 -11 34
-25 64 -39 86 -29 85 15 -1 22 -42 37 -82 33 -88 -3 -5 -1 -7 4 -4 6 4 26 -16
44 -45 19 -29 67 -95 107 -146 39 -51 72 -96 72 -101 0 -5 11 -16 25 -25 15
-10 23 -22 19 -29 -4 -7 -4 -9 0 -5 11 9 56 -33 49 -46 -3 -6 -3 -8 2 -4 11
10 37 -11 29 -23 -3 -5 0 -8 7 -7 6 2 14 -3 17 -11 3 -10 0 -11 -9 -5 -11 6
-12 5 -2 -7 6 -8 12 -18 13 -24 4 -18 37 -55 44 -48 5 6 10 -11 7 -29 0 -4 6
-5 14 -2 8 4 15 2 15 -4 0 -5 11 -17 24 -25 16 -11 24 -12 22 -4 -3 20 -17 38
-26 32 -5 -3 -11 4 -15 14 -3 11 -20 32 -36 46 -17 14 -27 25 -24 25 15 0 190
-173 191 -189 0 -9 6 -29 12 -45 7 -16 10 -37 6 -45 -4 -11 -11 1 -20 34 -7
28 -13 54 -14 59 0 5 -3 7 -6 3 -9 -9 16 -117 39 -167 11 -25 22 -40 24 -33 2
7 0 21 -6 32 -13 24 -14 61 -2 61 27 0 46 -257 30 -413 -5 -54 -21 -125 -40
-176 -17 -47 -37 -108 -45 -136 -23 -75 -24 -78 -28 -74 -12 12 -146 860 -146
923 0 79 -12 136 -28 136 -26 0 -8 -164 63 -590 19 -113 39 -236 45 -275 6
-38 26 -128 45 -200 19 -71 41 -157 50 -190 45 -173 63 -294 69 -462 l6 -173
-228 0 -227 0 -2 133 c-1 82 -7 149 -17 177 -8 25 -14 38 -15 28 -1 -11 -7
-15 -21 -11 -11 3 -20 1 -20 -5 0 -6 10 -12 22 -14 13 -2 24 -13 28 -28 8 -32
-2 -72 -15 -62 -27 19 -64 83 -69 118 -2 21 -12 56 -20 77 -9 21 -13 43 -9 50
4 7 0 7 -10 -2 -19 -15 -22 -37 -7 -43 12 -4 21 -76 11 -83 -18 -10 3 -55 40
-85 21 -17 39 -34 39 -38 0 -4 -13 -12 -29 -18 -36 -14 -61 -1 -61 32 0 16 -4
23 -11 18 -10 -6 -8 54 4 121 4 27 -3 41 -14 24 -14 -23 -19 -5 -9 30 14 50
38 81 73 96 39 16 54 6 63 -41 3 -19 8 -33 11 -30 5 5 -57 339 -93 496 -13 58
-35 157 -49 220 -13 63 -30 140 -37 170 -6 30 -22 79 -35 109 -28 64 -31 90
-4 38 10 -21 33 -54 51 -75 17 -20 72 -91 121 -157 49 -66 115 -152 147 -191
31 -40 63 -80 69 -90 10 -15 10 -13 0 11 -6 16 -18 37 -25 45 -195 224 -380
520 -425 680 -32 112 -77 511 -77 680 0 113 11 140 30 78 17 -53 53 -143 91
-227 16 -35 34 -93 39 -130 34 -233 43 -285 66 -361 28 -95 115 -322 121 -316
2 2 -12 44 -32 92 -42 106 -99 295 -114 379 -6 33 -13 101 -17 150 -5 76 -14
110 -55 213 -27 68 -53 140 -59 160 -5 20 -23 87 -40 147 -22 80 -29 122 -25
153 8 53 -10 57 -24 5 -14 -52 -16 -119 -7 -333 9 -211 60 -656 82 -714 23
-59 10 -54 -22 9 -15 31 -32 58 -36 61 -12 7 -10 0 7 -32 12 -23 15 -74 15
-254 -1 -462 -31 -879 -75 -1040 -8 -30 -15 -63 -15 -74 0 -41 -18 0 -22 51
-4 38 -1 53 9 57 7 3 13 11 13 18 0 9 -3 9 -12 0 -8 -8 -17 -8 -30 -1 -17 9
-18 19 -11 152 15 275 9 567 -15 732 -15 98 -26 239 -32 408 -6 142 -12 262
-14 265 -2 4 0 36 5 72 5 48 3 97 -11 185 -19 121 -35 178 -109 381 -130 362
-140 755 -31 1234 41 180 62 232 109 279 23 23 41 47 41 55 0 8 4 17 9 21 24
14 6 -189 -44 -500 -30 -185 -49 -777 -26 -813 10 -16 24 309 22 518 -1 80 3
161 8 180 18 70 19 -475 1 -655 -16 -161 -23 -361 -12 -350 6 6 16 117 22 250
15 291 26 471 28 428 1 -17 6 -34 11 -38 10 -6 10 1 -9 132 -18 131 -12 415
12 570 12 76 22 172 22 213 1 41 4 80 9 87 5 7 1 9 -13 6 -26 -7 -25 -1 5 46
13 22 36 81 50 133 15 51 38 110 51 131 14 22 24 41 22 43 -10 10 -62 -90 -84
-162 -21 -71 -80 -182 -90 -171 -2 2 5 26 15 53 10 27 27 72 36 99 10 28 32
91 50 140 17 50 40 113 49 140 29 83 149 324 213 425 172 275 361 465 628 631
142 88 174 104 306 160 383 159 647 204 854 144 47 -14 104 -34 126 -45 63
-33 226 -187 251 -238 12 -25 23 -41 25 -36 2 5 -10 37 -26 69 -31 64 -30 77
12 123 l20 22 -20 0 c-39 0 -53 -11 -53 -43 0 -29 -1 -30 -20 -12 -14 12 -17
25 -13 46 4 21 1 30 -11 35 -23 9 -32 -2 -16 -21 7 -9 10 -18 7 -21 -9 -9 -43
13 -72 48 l-28 33 59 6 c35 4 96 1 149 -8 50 -8 119 -19 155 -24 199 -31 358
-75 483 -134 314 -147 642 -416 849 -697 199 -269 225 -312 363 -608 164 -354
172 -365 538 -778 110 -125 350 -357 355 -344 1 5 -46 58 -105 119 -59 60
-153 161 -208 223 -55 62 -115 129 -133 148 -38 41 -34 57 6 20 35 -33 60 -46
97 -48 60 -4 85 0 85 14 0 8 7 21 15 30 17 17 14 111 -5 130 -5 5 -10 28 -10
49 0 59 30 90 98 103 l57 11 -101 2 c-115 1 -181 17 -272 67 -71 39 -72 39
-72 21 0 -8 18 -22 40 -32 22 -10 40 -22 40 -27 0 -9 -61 23 -84 44 -6 4 -21
8 -35 8 -15 0 -33 5 -41 10 -11 7 -5 10 23 10 27 0 80 20 173 66 74 36 134 69
134 75 0 5 -25 -4 -56 -21 -31 -16 -63 -30 -70 -30 -22 0 39 57 79 74 l39 16
-23 32 c-36 52 -36 52 -12 -24 6 -19 3 -21 -25 -15 -18 4 -34 2 -38 -4 -3 -6
-15 -8 -26 -6 -11 3 -29 1 -39 -6 -35 -22 -30 1 21 89 28 49 56 109 62 134 6
25 19 64 29 87 27 60 24 87 -4 38 -12 -22 -29 -40 -37 -40 -13 0 -60 59 -60
76 0 12 66 22 101 15 25 -5 31 -2 41 19 9 20 7 34 -11 74 -11 27 -21 61 -21
75 0 42 -42 139 -71 167 -16 15 -50 37 -76 49 -61 28 -83 48 -83 74 0 25 -77
205 -96 225 -11 13 -32 12 -156 -2 -79 -9 -177 -20 -218 -23 -128 -11 -351
-85 -365 -122 -3 -8 2 -23 11 -33 10 -11 13 -19 7 -19 -11 0 -203 172 -266
237 l-37 39 92 44 c111 53 229 130 251 164 26 39 7 38 -39 -3 -47 -41 -195
-121 -222 -120 -9 0 -3 5 13 11 17 6 47 22 67 35 21 12 42 23 47 23 5 0 21 14
36 32 l27 32 -23 17 c-50 38 -130 32 -169 -13 -17 -20 -37 -30 -66 -33 -22 -3
-68 -8 -101 -13 -46 -6 -60 -5 -56 3 2 7 -8 15 -25 18 -33 7 -72 -1 -72 -15 0
-5 -10 -4 -22 2 -20 9 -21 9 -4 -2 49 -34 56 -46 11 -22 -70 39 -113 67 -93
60 15 -4 16 -3 5 14 -6 11 -18 20 -25 20 -7 0 -11 -4 -7 -9 3 -5 0 -13 -6 -17
-8 -4 -9 -3 -5 4 6 11 -6 17 -27 13 -13 -2 -67 29 -67 38 0 5 -9 7 -19 4 -11
-3 -28 0 -38 7 -15 10 -14 10 10 5 18 -4 27 -1 27 7 0 28 -29 92 -46 105 -18
14 -18 15 1 31 22 19 32 52 15 52 -6 0 -10 8 -8 18 3 16 -28 17 -522 19 -503
1 -526 0 -549 -18z m408 -95 c2 -2 -10 -4 -27 -4 -17 0 -34 4 -37 10 -5 9 53
3 64 -6z m-86 -1 c-7 -2 -19 -2 -25 0 -7 3 -2 5 12 5 14 0 19 -2 13 -5z m595
-4 c-18 -10 -14 -37 6 -51 7 -5 3 -8 -9 -9 -17 -1 -16 -2 5 -9 40 -13 -4 -12
-55 1 -44 11 -56 32 -12 22 16 -3 18 -2 9 5 -11 7 -9 10 7 15 12 3 21 12 21
21 0 10 8 16 23 16 19 -1 20 -2 5 -11z m-445 -6 c-7 -2 -21 -2 -30 0 -10 3 -4
5 12 5 17 0 24 -2 18 -5z m117 -3 c16 -6 6 -7 -30 -3 -30 3 -57 7 -59 9 -8 7
64 2 89 -6z m440 -10 c0 -5 -6 -10 -14 -10 -8 0 -18 5 -21 10 -3 6 3 10 14 10
12 0 21 -4 21 -10z m-244 -17 l29 -13 -35 5 c-19 3 -64 10 -100 15 l-65 8 71
-1 c39 -1 84 -7 100 -14z m649 -261 c-3 -3 -11 0 -18 7 -9 10 -8 11 6 5 10 -3
15 -9 12 -12z m820 -262 c-12 -5 -14 -9 -6 -9 8 -1 25 -11 38 -23 l23 -21 -30
-19 c-17 -10 -37 -18 -46 -18 -22 0 -12 23 14 35 26 12 29 35 5 35 -10 0 -27
7 -37 15 -19 14 -17 15 20 14 31 0 35 -2 19 -9z m348 -1 c-8 -8 -16 -8 -30 0
-16 9 -14 10 12 11 21 0 26 -3 18 -11z m-4508 -85 c15 -38 36 -79 48 -92 l21
-23 -46 21 c-25 11 -76 24 -114 29 l-69 10 83 -5 c89 -5 92 -2 67 45 -14 28
-31 100 -21 90 3 -3 17 -36 31 -75z m4382 69 c-9 -2 -15 -9 -12 -14 4 -5 -9
-10 -27 -10 -18 -1 -46 -2 -62 -3 -33 -1 -47 20 -19 27 10 3 45 5 78 5 33 0
52 -2 42 -5z m-4457 -73 c-6 -11 -16 -20 -22 -20 -6 0 -3 9 7 20 10 11 20 20
22 20 2 0 -1 -9 -7 -20z m4548 -43 c7 3 21 -6 32 -20 11 -14 31 -28 45 -31 41
-10 214 -98 219 -111 2 -7 -10 -5 -32 7 -57 29 -70 23 -33 -16 l33 -34 -17
-48 c-18 -54 -69 -112 -81 -93 -4 6 0 16 9 20 15 9 30 45 42 106 6 31 4 33
-59 69 -67 39 -80 53 -31 34 15 -6 30 -8 33 -5 8 7 -60 34 -74 28 -7 -2 -15 1
-20 8 -5 8 -3 10 6 4 9 -5 11 -4 6 3 -4 7 -17 17 -29 24 -20 10 -21 9 -9 -5
11 -13 10 -15 -6 -10 -11 3 -34 22 -51 43 -34 43 -41 62 -13 38 9 -9 23 -13
30 -11z m-4643 -74 c-67 -7 -61 -20 14 -28 63 -6 71 -9 71 -28 0 -41 -51 -75
-64 -42 -3 8 -15 15 -26 15 -17 0 -20 -6 -20 -50 0 -63 15 -100 75 -181 26
-35 54 -77 62 -92 13 -27 13 -28 -5 -18 -34 18 -125 125 -146 171 -11 25 -21
69 -22 98 -1 34 -8 60 -19 72 -9 10 -14 24 -10 30 4 6 1 17 -5 25 -17 20 19
34 85 33 46 -1 47 -2 10 -5z m4403 -249 c-2 -11 -13 -20 -26 -22 -26 -4 -27 1
-6 34 18 27 38 19 32 -12z m-87 -37 c19 -15 43 -86 34 -95 -4 -4 -10 -1 -12 6
-3 7 -10 18 -17 25 -18 17 -40 59 -42 77 -1 8 -5 24 -9 35 -4 13 0 10 12 -8
11 -15 26 -33 34 -40z m404 22 c44 -11 84 -43 71 -57 -4 -4 -13 1 -20 11 -15
19 -73 43 -83 33 -4 -3 1 -6 10 -6 9 0 21 -9 27 -20 6 -11 22 -23 35 -26 22
-5 25 -12 25 -51 0 -24 10 -67 22 -95 15 -36 18 -53 11 -55 -9 -3 -9 -12 -2
-31 6 -15 10 -28 10 -29 -4 -15 2 -21 14 -17 22 9 18 -14 -4 -26 -29 -15 -63
-68 -63 -96 0 -33 -36 -41 -82 -19 -19 9 -39 14 -44 11 -5 -3 -19 6 -30 19
-12 14 -26 25 -31 25 -5 0 -14 14 -20 31 -14 41 -14 39 7 39 11 0 23 10 29 23
6 12 41 37 80 57 l69 35 -3 59 c-4 50 -10 66 -39 101 -38 47 -66 57 -132 48
-28 -4 -42 -2 -42 6 0 14 -27 14 -36 -1 -4 -6 -3 -8 4 -4 6 3 13 2 16 -2 6
-10 -36 -32 -59 -32 -41 0 9 60 60 73 38 9 156 7 200 -4z m310 -27 c-8 -9 -35
20 -28 31 4 6 11 3 19 -8 8 -10 12 -21 9 -23z m-444 -68 c14 -13 15 -21 7 -45
-12 -34 -26 -37 -37 -7 -8 21 -3 68 7 68 3 0 13 -7 23 -16z m304 -54 c4 -16
11 -32 16 -36 10 -6 59 -80 59 -88 0 -3 -20 15 -45 41 -25 25 -45 50 -45 57 0
6 -3 21 -6 34 -4 12 -2 22 4 22 6 0 13 -13 17 -30z m39 -253 c-14 -26 -31 -50
-37 -53 -8 -5 -8 -2 1 7 6 7 12 19 12 26 0 15 41 75 47 69 2 -1 -8 -24 -23
-49z m-4917 6 l20 -28 -28 0 c-19 0 -24 3 -18 11 5 6 7 19 3 28 -9 24 0 19 23
-11z m-60 -49 c-3 -3 -12 -4 -19 -1 -8 3 -5 6 6 6 11 1 17 -2 13 -5z m4924
-41 c-17 -32 -40 -58 -41 -47 0 6 7 17 15 24 8 7 15 19 15 26 0 8 5 14 10 14
7 0 7 -6 1 -17z m-234 -25 c-3 -8 -6 -5 -6 6 -1 11 2 17 5 13 3 -3 4 -12 1
-19z m-4540 -20 c-3 -8 -6 -5 -6 6 -1 11 2 17 5 13 3 -3 4 -12 1 -19z m4863
-253 c14 -8 21 -14 15 -14 -5 0 -21 6 -35 14 -14 8 -20 14 -15 14 6 0 21 -6
35 -14z m-680 -1265 c-10 -99 -26 -188 -71 -395 -4 -22 -13 -56 -19 -75 -6
-19 -19 -102 -30 -185 -28 -214 -54 -378 -89 -550 -29 -146 -33 -155 -131
-353 -120 -244 -208 -385 -292 -470 -67 -66 -64 -81 5 -33 67 47 131 119 200
224 l64 98 25 -33 c43 -58 124 -200 167 -294 46 -102 47 -104 26 -104 -9 0
-12 6 -9 15 8 19 -12 20 -23 1 -12 -21 -231 -41 -275 -26 -26 9 -64 9 -173 -3
-137 -14 -140 -14 -162 6 -19 17 -27 18 -45 10 -13 -6 -41 -15 -63 -19 -31 -7
-41 -14 -43 -31 -2 -13 -10 -23 -18 -23 -20 0 -31 33 -13 39 36 12 133 119
159 176 77 168 164 545 153 661 l-5 51 114 114 c114 114 122 124 168 189 13
19 30 41 37 48 7 8 18 22 24 33 5 11 15 16 21 13 7 -4 8 -3 4 4 -4 7 5 29 19
49 14 21 25 41 25 46 0 14 51 89 57 83 14 -14 43 16 43 45 0 18 -4 28 -10 24
-14 -9 -13 -3 10 51 23 54 91 325 114 454 8 47 21 141 28 210 7 69 14 112 16
95 2 -16 -2 -82 -8 -145z m439 -227 c-1 -38 -4 -59 -6 -49 -4 15 -7 16 -15 5
-7 -10 -8 -7 -4 11 3 14 9 42 12 63 10 56 14 45 13 -30z m-1133 -1208 c-13
-137 -18 -163 -30 -159 -9 3 -16 -20 -23 -73 -5 -43 -17 -94 -25 -113 -9 -19
-21 -64 -28 -100 -6 -36 -17 -76 -23 -90 -6 -14 -10 -29 -9 -33 4 -15 -30 -70
-71 -114 -40 -43 -70 -64 -113 -77 -28 -9 -40 19 -20 49 17 26 25 84 11 85 -5
1 -13 -16 -18 -36 -13 -62 -50 -91 -76 -60 -10 11 -8 17 9 29 20 14 47 82 55
138 2 15 -2 53 -10 85 -7 32 -11 63 -8 68 4 5 1 6 -7 1 -10 -6 -12 -2 -8 17 5
26 -4 30 -30 15 -7 -5 -10 -12 -7 -17 3 -5 1 -19 -5 -31 -10 -18 -9 -20 12
-17 20 3 23 -1 22 -30 -1 -18 -5 -40 -8 -49 -6 -14 -8 -14 -25 1 -32 29 -37
-2 -14 -89 l5 -20 -16 20 c-18 23 -24 201 -6 190 6 -3 10 3 10 15 0 14 15 29
46 48 86 51 199 138 245 189 25 28 69 100 99 159 48 97 54 105 63 83 5 -13 6
-51 3 -84z m-2414 58 c14 -16 44 -55 67 -88 70 -101 135 -172 203 -224 36 -27
70 -62 76 -78 6 -15 14 -64 17 -109 l7 -81 -44 -5 c-23 -3 -52 -9 -63 -12 -11
-3 -6 0 10 8 17 8 26 15 20 16 -5 0 1 8 15 16 14 8 17 13 8 10 -11 -3 -18 0
-18 7 0 7 -14 18 -31 24 -17 7 -33 20 -35 30 -3 11 -18 24 -34 30 -25 9 -75
72 -94 117 -12 28 -34 -30 -40 -106 -7 -81 -7 -82 22 -108 32 -29 30 -42 -12
-88 -17 -20 -18 -22 -3 -16 15 5 13 0 -7 -31 -14 -21 -26 -42 -26 -46 0 -5 -7
-5 -17 -2 -10 4 -14 2 -10 -4 4 -6 0 -13 -8 -17 -8 -3 -15 -12 -15 -20 0 -7
-7 -16 -14 -19 -8 -3 -23 -21 -32 -39 -9 -18 -27 -45 -40 -61 l-23 -27 -7 35
c-6 33 23 133 90 313 9 23 23 84 32 135 24 137 9 352 -31 450 -11 26 8 21 37
-10z m-792 -64 c0 -6 -4 -7 -10 -4 -5 3 -10 11 -10 16 0 6 5 7 10 4 6 -3 10
-11 10 -16z m-15 -66 c15 -32 34 -66 43 -75 23 -27 38 -187 33 -348 -2 -86 6
-184 20 -220 13 -34 38 -291 30 -310 -3 -9 -8 -1 -12 20 l-5 35 -8 -30 c-13
-53 -20 -60 -71 -62 -26 -1 -54 -4 -62 -7 -9 -4 -17 1 -20 14 -6 23 -23 27
-23 5 0 -8 -4 -15 -10 -15 -5 0 -10 1 -10 3 0 1 7 61 15 132 20 165 34 453 36
713 0 111 4 202 8 202 4 0 20 -26 36 -57z m3735 -182 c18 -42 42 -94 55 -116
43 -74 145 -325 145 -355 0 -34 -16 -38 -82 -20 -35 10 -40 17 -96 133 -33 67
-82 162 -110 211 -72 125 -73 135 -22 202 40 53 43 55 60 39 11 -10 33 -52 50
-94z m-2468 -144 c10 -4 51 -28 90 -55 40 -27 100 -63 133 -80 33 -16 104 -59
157 -95 146 -97 177 -111 230 -97 24 6 54 15 68 20 14 5 108 39 210 75 102 37
207 78 234 91 26 14 50 24 52 22 1 -2 0 -85 -4 -184 -7 -176 0 -261 22 -276
18 -13 26 -9 26 12 0 11 5 20 10 20 13 0 13 -2 -3 -36 -15 -35 -33 -63 -111
-174 -147 -209 -171 -237 -307 -367 l-66 -63 -139 0 -140 0 -49 43 c-113 98
-162 155 -319 369 -33 45 -146 264 -146 283 0 3 5 3 11 -1 9 -5 10 1 5 20 -3
14 -9 90 -11 169 -3 78 -9 185 -14 237 -5 52 -7 99 -4 103 3 5 15 0 27 -11 11
-10 29 -22 38 -25z m1446 -41 c2 -10 -2 -23 -8 -30 -10 -8 -11 -7 -8 4 3 8 1
23 -4 34 -8 14 -7 17 4 14 7 -3 15 -13 16 -22z m-2572 -181 c25 -115 54 -312
54 -364 0 -30 -5 -53 -14 -60 -20 -17 -23 -2 -42 170 -8 79 -19 180 -24 224
-5 44 -12 105 -15 135 l-5 55 15 -45 c8 -25 22 -76 31 -115z m2704 92 c0 -5
-4 -5 -10 -2 -5 3 -10 14 -10 23 0 15 2 15 10 2 5 -8 10 -19 10 -23z m-1670
-40 c0 -17 -34 -83 -65 -126 -14 -19 -25 -37 -25 -40 1 -11 50 -42 70 -44 15
-1 20 -9 20 -31 l0 -30 -36 42 c-19 23 -42 42 -50 42 -8 0 -26 11 -40 25 -20
20 -24 32 -19 55 7 31 -2 39 -22 19 -17 -17 3 -64 41 -97 38 -32 76 -84 76
-104 0 -20 91 -168 148 -240 26 -33 60 -79 76 -102 87 -122 282 -353 315 -371
23 -13 -14 -14 -289 -12 -248 2 -315 5 -315 15 0 7 -27 43 -61 80 -33 37 -77
96 -99 131 -21 35 -46 66 -57 69 -10 2 -18 11 -18 20 0 8 -13 39 -30 68 -48
85 -48 113 -1 232 23 56 41 108 41 115 0 7 9 29 20 50 11 20 20 46 20 57 0 13
5 18 16 13 11 -4 15 -1 12 13 -2 13 3 19 15 18 9 -1 17 4 17 10 0 17 65 78 73
70 4 -4 7 -2 7 4 0 16 -33 15 -49 0 -11 -11 -13 -10 -9 1 4 16 136 58 186 60
20 1 32 -4 32 -12z m1371 -25 c-7 -2 -18 1 -23 6 -8 8 -4 9 13 5 13 -4 18 -8
10 -11z m1 -27 c33 -9 94 -35 136 -59 42 -24 100 -56 127 -71 130 -72 140 -86
109 -147 -22 -43 -22 -155 0 -246 10 -40 15 -83 12 -97 -8 -33 -94 -125 -117
-125 -19 0 -86 -48 -160 -114 -25 -23 -56 -49 -68 -59 -13 -10 -20 -21 -17
-24 8 -8 96 40 171 92 49 35 156 95 167 95 5 0 2 -60 -7 -137 l-8 -73 -387 0
c-212 0 -389 3 -392 6 -3 3 12 25 33 48 39 42 64 78 229 316 44 63 93 131 110
150 31 35 140 246 140 271 1 8 7 32 15 54 9 25 11 43 5 49 -7 7 -10 5 -10 -3
0 -24 -59 -161 -86 -199 -19 -27 -25 -31 -21 -14 3 12 1 20 -4 17 -29 -19 -84
240 -58 272 14 16 9 16 81 -2z m197 -64 c-6 -2 -18 4 -27 13 -15 15 -15 15 10
4 15 -7 23 -15 17 -17z m-1599 -26 c-7 -8 -18 -15 -24 -15 -6 0 -2 7 8 15 25
19 32 19 16 0z m67 -67 c-3 -8 -6 -5 -6 6 -1 11 2 17 5 13 3 -3 4 -12 1 -19z
m-427 -100 c-12 -46 -30 -91 -40 -100 -22 -21 -26 -16 -28 37 l-1 40 10 -32
c5 -18 14 -33 19 -33 13 0 13 12 0 44 -6 16 -6 26 0 26 11 0 40 53 40 72 0 7
-14 -3 -31 -22 -37 -42 -28 -21 15 37 39 53 43 36 16 -69z m3295 84 c172 -56
447 -193 513 -255 52 -49 114 -167 87 -167 -2 0 -50 20 -107 44 -173 73 -349
143 -423 166 -38 12 -122 46 -185 75 -178 82 -190 86 -265 95 -121 15 -207 32
-198 41 17 17 143 26 328 23 156 -2 201 -6 250 -22z m-945 -66 c0 -28 -13 -10
-17 22 -3 21 -1 24 7 12 5 -8 10 -24 10 -34z m-2900 -151 c0 -8 -4 -15 -10
-15 -5 0 -10 7 -10 15 0 8 5 15 10 15 6 0 10 -7 10 -15z m-319 -98 c-8 -8 -11
-7 -11 4 0 20 13 34 18 19 3 -7 -1 -17 -7 -23z m209 4 c0 -6 -4 -13 -10 -16
-5 -3 -10 -21 -10 -40 0 -40 -16 -85 -30 -85 -5 0 -31 -13 -57 -29 -29 -17
-69 -31 -100 -34 l-53 -6 7 62 c10 100 7 97 106 102 48 3 96 9 105 15 12 8 -8
9 -78 5 -79 -6 -93 -4 -82 7 8 8 48 15 100 19 48 3 90 6 95 7 4 1 7 -2 7 -7z
m-871 -117 c-7 -9 -18 -24 -24 -34 -5 -9 -43 -61 -84 -115 -85 -112 -115 -167
-106 -196 6 -17 1 -19 -50 -19 -65 0 -65 -1 -13 105 55 112 123 184 238 249
53 30 57 31 39 10z m848 -75 c-7 -54 -19 -66 -54 -53 -42 14 -42 49 -1 74 51
31 62 27 55 -21z m764 -45 c10 -16 18 -39 18 -52 1 -12 21 -47 45 -76 24 -30
47 -64 51 -75 4 -13 15 -21 28 -22 21 0 21 -1 2 -9 -11 -5 -39 -9 -61 -9 -40
-1 -42 0 -49 37 -4 20 -13 48 -20 62 -8 14 -21 52 -30 85 -9 33 -19 68 -22 79
-8 28 18 15 38 -20z m2025 -2 c-17 -16 -18 -16 -5 5 7 12 15 20 18 17 3 -2 -3
-12 -13 -22z m-2600 -79 c-3 -8 -6 -19 -6 -24 0 -13 -13 -11 -35 5 -16 11 -17
17 -7 29 16 19 55 10 48 -10z"/>
<path d="M5787 4934 c-9 -10 2 -24 18 -24 9 0 12 6 9 15 -6 16 -17 19 -27 9z"/>
<path d="M5719 4867 c-19 -13 -42 -26 -51 -30 -11 -4 -18 -17 -18 -31 0 -14
-4 -28 -10 -31 -5 -3 -10 -11 -10 -18 0 -7 7 -5 16 5 15 14 21 15 60 1 24 -8
51 -13 61 -10 12 3 9 5 -8 6 -38 1 -54 24 -34 45 9 9 13 16 9 16 -3 0 -1 7 6
15 7 8 9 15 5 15 -4 0 -2 7 5 15 21 26 5 27 -31 2z"/>
<path d="M5117 2274 c-4 -4 -7 -17 -7 -28 1 -19 1 -20 11 -3 11 19 8 43 -4 31z"/>
<path d="M4937 1343 c-4 -3 -7 -11 -7 -17 0 -6 5 -5 12 2 6 6 9 14 7 17 -3 3
-9 2 -12 -2z"/>
<path d="M4561 1213 c-1 -6 -4 -20 -7 -30 -5 -17 -5 -17 6 0 6 10 9 23 6 30
-3 9 -5 9 -5 0z"/>
<path d="M4584 1749 c-6 -8 -14 -36 -18 -64 -5 -41 -4 -47 5 -30 7 11 16 23
21 26 5 3 8 23 6 44 -2 30 -5 35 -14 24z"/>
<path d="M4247 1269 c4 -13 8 -18 11 -10 2 7 -1 18 -6 23 -8 8 -9 4 -5 -13z"/>
<path d="M4328 1260 c-4 -8 -9 -44 -12 -80 -5 -64 -5 -65 10 -31 9 19 14 53
12 80 -2 25 -6 39 -10 31z"/>
<path d="M4161 1215 c0 -5 3 -16 8 -23 7 -11 9 -10 14 3 4 9 3 14 -2 10 -5 -3
-12 1 -14 7 -3 7 -6 9 -6 3z"/>
<path d="M2196 1245 c-7 -27 22 -145 36 -145 10 0 10 -5 -6 55 -7 28 -10 59
-6 70 8 22 3 45 -10 45 -4 0 -11 -11 -14 -25z"/>
<path d="M2165 1048 c-9 -28 -10 -47 -1 -45 5 1 10 14 12 30 2 28 -4 36 -11
15z"/>
<path d="M1361 1580 c0 -19 4 -42 9 -50 7 -11 10 -8 9 15 0 17 -4 39 -9 50 -7
16 -9 14 -9 -15z"/>
<path d="M1461 894 c0 -11 3 -14 6 -6 3 7 2 16 -1 19 -3 4 -6 -2 -5 -13z"/>
<path d="M1321 775 c0 -31 2 -36 9 -23 6 10 7 25 1 40 -9 20 -10 18 -10 -17z"/>
<path d="M5141 1292 c-1 -7 15 -44 34 -82 19 -39 42 -96 50 -127 8 -32 18 -65
21 -75 3 -12 0 -18 -10 -18 -9 0 -13 -6 -10 -14 5 -13 44 -11 44 3 0 3 -9 39
-20 79 -20 70 -108 261 -109 234z"/>
<path d="M3770 1035 c-7 -9 -11 -18 -8 -20 3 -3 11 1 18 10 7 9 11 18 8 20 -3
3 -11 -1 -18 -10z"/>
<path d="M2420 1079 c0 -5 5 -7 10 -4 6 3 10 8 10 11 0 2 -4 4 -10 4 -5 0 -10
-5 -10 -11z"/>
<path d="M2403 689 c-6 -101 -9 -218 -6 -260 3 -41 0 -99 -6 -128 -9 -43 -8
-57 4 -79 8 -15 15 -25 15 -22 12 61 20 628 9 657 -3 9 -10 -67 -16 -168z"/>
<path d="M4014 785 c3 -22 6 -123 7 -225 1 -154 3 -175 11 -125 11 71 0 356
-14 376 -7 10 -8 2 -4 -26z"/>
<path d="M4214 6303 c0 -10 -3 -27 -7 -39 -5 -13 -3 -21 5 -22 66 -8 63 -10
63 35 0 41 -1 43 -30 43 -22 0 -31 -5 -31 -17z"/>
<path d="M4340 6316 c0 -10 28 -13 41 -5 10 6 7 9 -13 9 -16 0 -28 -2 -28 -4z"/>
<path d="M805 6279 c-2 -8 -27 -106 -55 -219 -61 -247 -68 -350 -50 -705 7
-126 14 -270 16 -320 8 -185 35 -552 46 -620 9 -53 14 -64 18 -45 4 14 2 34
-3 45 -6 11 -14 83 -18 160 -4 77 -12 196 -18 265 -6 69 -8 163 -4 210 11 130
5 268 -12 303 -31 61 -10 588 25 632 4 6 11 31 14 58 5 31 12 47 22 47 8 0 13
3 12 8 -6 15 37 98 64 125 32 31 36 57 11 57 -10 0 -28 3 -40 6 -15 4 -24 1
-28 -7z m-8 -121 c-3 -8 -6 -5 -6 6 -1 11 2 17 5 13 3 -3 4 -12 1 -19z"/>
<path d="M2537 6284 c-4 -4 -7 -23 -6 -43 l1 -36 9 33 c11 36 9 58 -4 46z"/>
<path d="M2450 6216 c0 -2 7 -6 15 -10 8 -3 15 -1 15 4 0 6 -7 10 -15 10 -8 0
-15 -2 -15 -4z"/>
<path d="M5383 6148 c-2 -18 0 -20 7 -8 12 18 13 30 2 30 -4 0 -9 -10 -9 -22z"/>
<path d="M3575 6140 c-3 -5 -1 -10 4 -10 6 0 11 5 11 10 0 6 -2 10 -4 10 -3 0
-8 -4 -11 -10z"/>
<path d="M3093 6133 c32 -2 81 -2 110 0 29 2 3 3 -58 3 -60 0 -84 -1 -52 -3z"/>
<path d="M3620 6130 c-8 -5 -11 -12 -7 -17 10 -10 87 -11 87 -1 0 4 -10 8 -23
8 -13 0 -27 4 -33 10 -5 5 -15 6 -24 0z"/>
<path d="M2688 6123 c6 -2 18 -2 25 0 6 3 1 5 -13 5 -14 0 -19 -2 -12 -5z"/>
<path d="M5397 6124 c-4 -4 -7 -14 -7 -23 0 -11 3 -12 11 -4 6 6 10 16 7 23
-2 6 -7 8 -11 4z"/>
<path d="M2600 6106 c-25 -6 -54 -18 -65 -25 l-20 -13 20 7 c11 4 45 13 75 21
30 8 56 17 59 19 7 8 -22 4 -69 -9z"/>
<path d="M5095 6100 c7 -11 71 -30 100 -29 11 0 -7 9 -40 19 -70 23 -68 23
-60 10z"/>
<path d="M4260 6065 c-7 -9 -8 -15 -2 -15 5 0 12 7 16 15 3 8 4 15 2 15 -2 0
-9 -7 -16 -15z"/>
<path d="M4294 6062 c-10 -16 -9 -18 7 -17 11 1 25 8 32 15 10 12 9 12 -5 1
-13 -10 -17 -9 -20 4 -3 13 -5 13 -14 -3z"/>
<path d="M3426 5966 c10 -8 21 -12 24 -10 5 6 -21 24 -34 24 -6 0 -1 -6 10
-14z"/>
<path d="M3265 5928 c-38 -10 -95 -33 -125 -50 -52 -29 -172 -110 -196 -133
-129 -119 -171 -167 -332 -375 -261 -337 -490 -752 -614 -1110 -40 -116 -95
-338 -109 -435 -6 -44 -13 -83 -15 -87 -10 -16 -34 -239 -34 -317 0 -47 5
-135 12 -194 13 -121 8 -136 -48 -140 -22 -2 -29 2 -30 18 -1 11 -7 64 -13
117 -23 205 -12 549 29 843 11 84 11 113 -1 64 -44 -186 -65 -549 -48 -804 17
-247 17 -241 -3 -237 -10 2 -18 -2 -18 -9 0 -6 -7 -9 -15 -5 -8 3 -15 1 -15
-4 0 -6 10 -10 23 -10 41 0 57 -21 68 -90 18 -118 68 -323 120 -498 27 -91 31
-115 20 -121 -9 -6 -11 -17 -6 -32 12 -40 96 -210 138 -279 22 -36 51 -89 64
-117 14 -29 31 -53 39 -53 11 0 8 9 -11 37 -14 21 -25 41 -25 45 0 4 -17 35
-37 70 -41 70 -143 285 -143 302 0 6 21 -26 48 -71 45 -78 169 -228 222 -268
14 -11 -8 17 -49 60 -125 134 -192 252 -241 424 -17 57 -30 111 -30 121 0 9
-9 42 -19 72 -33 97 -77 329 -72 386 2 18 19 15 23 -5 2 -10 12 -18 23 -18 16
0 21 -9 26 -45 3 -25 16 -66 27 -91 12 -26 29 -91 37 -145 19 -120 60 -298 80
-350 17 -43 16 -37 -19 111 -31 129 -61 330 -51 344 4 8 22 -5 51 -35 24 -26
46 -45 49 -43 2 3 -11 41 -29 85 -48 112 -49 117 -51 137 -3 22 72 89 123 111
20 9 49 23 64 30 l26 14 0 -96 c-1 -120 26 -229 82 -322 74 -125 121 -151 279
-153 114 -2 139 5 178 52 24 28 29 51 12 51 -5 0 -8 -4 -4 -9 3 -6 -4 -18 -15
-29 -50 -46 -176 -55 -281 -20 -90 30 -106 43 -141 112 -39 77 -43 150 -8 178
27 22 49 23 56 3 7 -18 35 -20 52 -3 9 9 12 2 12 -34 0 -39 5 -50 30 -72 40
-33 103 -51 130 -36 24 13 46 61 55 117 7 45 25 69 25 34 0 -11 5 -23 10 -26
6 -3 10 -26 10 -50 0 -24 5 -47 10 -50 8 -5 7 -12 -2 -22 -10 -13 -8 -18 11
-34 33 -27 87 -25 105 4 21 30 39 160 31 213 -4 28 -2 44 4 44 12 0 112 -69
123 -84 4 -6 10 -8 13 -4 9 9 -11 43 -50 87 -43 47 -35 67 21 52 70 -19 70 -8
1 32 -23 13 -82 48 -132 77 -49 29 -103 57 -120 62 -144 44 -175 49 -342 55
-144 5 -183 3 -233 -11 -33 -9 -64 -14 -70 -11 -10 6 27 58 163 229 44 55 84
110 90 123 5 13 14 23 19 23 4 0 -12 -37 -36 -82 -104 -197 -124 -238 -115
-238 5 0 9 4 9 8 0 4 38 76 85 160 47 84 85 157 85 162 0 5 7 13 15 18 17 9
71 106 131 232 20 41 91 187 159 323 67 137 119 245 114 240 -12 -12 -101
-178 -192 -358 -93 -184 -149 -285 -189 -336 -15 -20 -28 -41 -28 -46 0 -5
-14 -22 -31 -39 -17 -16 -51 -60 -77 -99 -25 -38 -66 -94 -91 -124 -60 -71
-118 -150 -130 -178 -8 -18 -61 -43 -93 -43 -4 0 -5 26 -3 58 3 43 2 50 -4 27
-5 -16 -9 -45 -10 -62 -1 -33 -1 -33 47 -34 40 0 44 -2 28 -12 -10 -7 -34 -22
-52 -34 l-33 -22 -11 37 c-18 58 -24 292 -11 374 65 408 74 450 127 621 93
296 314 737 512 1022 225 323 370 486 530 594 67 45 197 111 222 112 8 0 35 9
60 19 57 24 35 23 -55 -2z m-911 -2979 c-11 -18 -21 1 -16 28 5 27 5 27 14 4
4 -13 5 -27 2 -32z m424 19 c3 -22 -2 -29 -22 -34 -36 -9 -60 -1 -64 20 -5 25
25 48 58 44 19 -2 26 -10 28 -30z m-48 -58 c12 -8 11 -10 -7 -10 -12 0 -25 5
-28 10 -8 13 15 13 35 0z m-230 -31 c0 -11 -4 -18 -10 -14 -5 3 -7 12 -3 20 7
21 13 19 13 -6z m260 -54 c0 -43 -42 -87 -63 -66 -15 15 20 81 43 81 11 0 20
-7 20 -15z"/>
<path d="M3815 5890 c-59 -5 -47 -6 80 -10 140 -5 155 -8 223 -37 121 -52 265
-156 406 -293 72 -69 120 -111 109 -95 -22 32 -186 196 -238 238 -120 97 -290
183 -388 198 -65 9 -80 9 -192 -1z"/>
<path d="M3222 5855 c-56 -32 -177 -137 -255 -223 l-62 -67 70 65 c164 152
218 196 280 228 22 12 33 21 25 21 -8 1 -34 -10 -58 -24z"/>
<path d="M1210 5855 c-10 -12 -10 -15 4 -15 9 0 16 7 16 15 0 8 -2 15 -4 15
-2 0 -9 -7 -16 -15z"/>
<path d="M3685 5860 c3 -5 13 -10 21 -10 8 0 12 5 9 10 -3 6 -13 10 -21 10 -8
0 -12 -4 -9 -10z"/>
<path d="M3741 5850 c-8 -4 3 -17 28 -33 22 -15 54 -42 70 -59 17 -18 49 -53
72 -78 142 -151 274 -494 365 -945 25 -126 26 -138 21 -395 -5 -260 -19 -423
-53 -617 -9 -54 -18 -107 -19 -118 -1 -14 -21 -30 -65 -52 -62 -31 -104 -63
-83 -63 6 0 16 7 23 14 11 14 54 32 96 40 10 3 40 10 65 17 40 11 64 10 175
-9 71 -12 138 -22 149 -21 71 2 -215 59 -297 59 -26 0 -48 3 -48 7 0 5 11 82
24 173 40 266 47 351 53 605 l5 240 -56 230 c-108 441 -183 641 -301 795 -60
77 -210 219 -224 210z"/>
<path d="M3715 5791 c27 -28 51 -51 53 -51 10 0 -53 71 -76 86 -17 10 -8 -3
23 -35z"/>
<path d="M1428 5755 c44 -28 59 -28 49 -1 -4 9 -17 15 -29 15 -13 -1 -32 2
-43 6 -11 4 -1 -5 23 -20z"/>
<path d="M3770 5726 c0 -2 8 -10 18 -17 15 -13 16 -12 3 4 -13 16 -21 21 -21
13z"/>
<path d="M1987 5581 c-48 -50 -87 -97 -87 -106 0 -13 -30 -61 -67 -105 -55
-66 -128 -162 -137 -180 -12 -23 42 38 119 134 39 49 114 142 168 207 54 66
97 124 95 130 -2 6 -43 -30 -91 -80z"/>
<path d="M4730 5639 c0 -2 77 -83 171 -179 94 -96 186 -192 203 -215 78 -97
178 -285 232 -435 7 -19 13 -28 14 -19 0 15 -27 87 -69 184 -33 75 -120 224
-160 275 -64 82 -391 407 -391 389z"/>
<path d="M3891 5540 c-1 -3 17 -48 40 -100 22 -52 37 -81 34 -65 -5 28 -72
176 -74 165z"/>
<path d="M812 5310 c0 -19 2 -27 5 -17 2 9 2 25 0 35 -3 9 -5 1 -5 -18z"/>
<path d="M4986 5315 c10 -16 40 -68 67 -115 27 -47 53 -89 59 -95 20 -20 -92
181 -117 210 l-27 30 18 -30z"/>
<path d="M751 5024 c0 -11 3 -14 6 -6 3 7 2 16 -1 19 -3 4 -6 -2 -5 -13z"/>
<path d="M6010 4761 c12 -23 30 -36 30 -22 0 10 -27 41 -36 41 -3 0 0 -9 6
-19z"/>
<path d="M2951 4693 c-6 -37 -15 -104 -22 -148 -6 -43 -24 -112 -39 -152 -40
-102 -145 -284 -264 -452 -55 -79 -115 -163 -132 -188 -51 -72 -73 -91 -97
-86 -19 4 -20 3 -5 -7 16 -10 15 -15 -14 -63 -18 -29 -53 -81 -78 -117 -26
-36 -50 -72 -54 -80 -4 -8 1 -4 11 9 9 13 44 60 77 105 32 44 70 96 84 114 23
31 26 33 70 26 130 -18 312 -73 367 -110 11 -8 31 -14 46 -14 15 0 32 -7 39
-15 7 -8 18 -15 25 -15 29 0 36 -26 104 -353 11 -48 22 -91 26 -95 10 -10 -2
74 -30 198 -30 132 -70 345 -90 475 -35 227 -42 637 -16 930 5 55 8 101 6 103
-2 2 -8 -27 -14 -65z m-1 -910 c36 -240 36 -234 14 -226 -10 3 -32 16 -49 29
-91 66 -197 95 -347 95 l-109 -1 22 33 c13 17 37 50 55 72 94 119 308 455 356
560 l23 50 7 -237 c5 -152 15 -287 28 -375z m-196 -154 c21 -5 52 -17 70 -26
51 -28 8 -26 -63 2 -36 14 -73 25 -83 25 -11 0 -16 5 -12 11 3 6 16 8 28 4 11
-3 38 -11 60 -16z"/>
<path d="M4101 4684 c0 -11 3 -14 6 -6 3 7 2 16 -1 19 -3 4 -6 -2 -5 -13z"/>
<path d="M5362 4670 c0 -31 35 -172 36 -145 1 11 -7 54 -18 95 -10 41 -18 64
-18 50z"/>
<path d="M2401 4554 c-12 -26 -20 -49 -17 -52 3 -2 15 17 26 43 27 62 20 68
-9 9z"/>
<path d="M4112 4570 c0 -19 2 -27 5 -17 2 9 2 25 0 35 -3 9 -5 1 -5 -18z"/>
<path d="M4360 4583 c0 -6 8 -17 18 -24 16 -13 16 -13 2 6 -8 11 -16 22 -17
24 -2 2 -3 0 -3 -6z"/>
<path d="M4114 4400 c0 -69 1 -97 3 -62 2 34 2 90 0 125 -2 34 -3 6 -3 -63z"/>
<path d="M4479 4360 c43 -91 92 -208 109 -260 73 -231 116 -387 132 -485 20
-129 22 -118 -19 -110 -20 3 -45 8 -56 11 l-20 6 20 -14 c11 -8 37 -21 59 -30
31 -12 39 -20 41 -44 17 -186 25 -284 31 -362 l6 -93 -28 7 c-16 4 -49 20 -74
35 -62 37 -219 55 -348 40 -103 -13 -248 -54 -375 -108 -69 -29 -93 -45 -109
-71 -25 -41 -20 -51 7 -12 26 38 103 66 124 45 13 -12 11 -15 -10 -23 -13 -6
-33 -19 -43 -31 -11 -11 -27 -21 -36 -21 -10 0 -23 -7 -30 -15 -7 -9 -21 -13
-31 -10 -13 4 -22 -3 -35 -27 -16 -32 -16 -33 2 -17 11 9 35 19 54 22 19 3 44
7 55 9 14 2 19 -2 16 -12 -8 -32 -13 -170 -7 -195 10 -38 28 -26 31 20 1 22
12 61 23 88 20 44 23 47 56 45 19 -2 32 -7 29 -12 -3 -5 6 -7 21 -4 l27 5 -7
-57 c-6 -57 -6 -57 27 -77 19 -11 53 -23 77 -26 39 -5 44 -2 66 26 33 44 36
62 27 137 -5 36 -6 71 -4 77 8 20 23 4 23 -24 0 -14 9 -41 21 -59 14 -23 21
-53 22 -95 2 -55 -1 -63 -24 -82 -36 -29 -40 -58 -13 -79 28 -23 42 -23 22 0
-9 9 -19 28 -23 41 -7 22 -5 23 21 18 16 -3 38 -7 49 -9 11 -2 23 -11 27 -21
14 -34 32 -12 70 84 43 110 66 186 74 252 7 51 11 53 78 38 24 -6 55 -26 83
-53 41 -39 44 -46 40 -83 -5 -53 -57 -168 -101 -227 -34 -46 -34 -47 -8 -31
84 53 146 111 174 163 45 85 80 130 100 130 13 0 18 -8 19 -32 l1 -33 10 38
c6 22 7 66 3 105 -7 62 -9 65 -17 35 -10 -37 -36 -44 -63 -16 -14 13 -16 28
-11 67 3 28 8 130 11 226 3 96 8 189 11 207 4 30 6 32 32 22 15 -6 36 -18 47
-27 14 -12 13 -9 -3 10 -13 14 -34 29 -47 32 -26 7 -23 -9 -45 236 -23 251
-49 426 -90 590 -17 71 -54 170 -64 170 -2 0 12 -60 30 -132 49 -187 65 -269
62 -319 -1 -24 5 -102 14 -174 16 -121 23 -233 19 -297 -1 -22 -6 -28 -25 -28
-42 0 -62 29 -76 110 -14 88 -38 186 -86 360 -60 214 -85 281 -155 420 -98
196 -112 203 -20 10z m340 -918 c23 -5 24 -7 18 -81 -7 -94 -38 -271 -47 -271
-4 0 -10 53 -13 118 -4 64 -10 148 -13 186 -7 66 -6 69 12 61 10 -4 30 -10 43
-13z m44 -234 c-3 -112 -11 -221 -17 -243 l-12 -39 -21 21 c-12 12 -20 30 -18
40 8 34 55 328 60 376 12 92 14 44 8 -155z m20 -362 c21 -16 23 -46 2 -46 -8
0 -21 -16 -29 -35 -20 -47 -27 -44 -19 10 4 29 1 50 -7 60 -15 18 0 20 19 3
11 -11 13 -10 8 5 -7 20 1 21 26 3z m-813 -48 c0 -13 -23 -5 -28 10 -2 7 2 10
12 6 9 -3 16 -11 16 -16z m421 2 c23 -13 25 -58 3 -67 -22 -8 -64 8 -77 29
-22 35 29 61 74 38z m-277 -143 c-10 -28 -24 -19 -24 15 0 29 2 31 15 17 9 -9
13 -23 9 -32z m180 -107 c-6 -6 -19 -8 -29 -4 -17 7 -17 8 1 21 21 15 45 0 28
-17z"/>
<path d="M2355 4453 c-10 -21 -34 -74 -55 -118 -21 -44 -44 -96 -53 -115 -9
-19 -37 -80 -62 -135 -77 -164 -135 -298 -132 -302 2 -2 19 29 37 69 64 141
98 214 158 339 69 142 133 291 128 296 -2 2 -11 -13 -21 -34z"/>
<path d="M3166 4433 c-24 -159 -46 -668 -46 -1098 0 -121 -5 -237 -9 -259 -7
-26 -5 -65 4 -120 8 -44 16 -97 18 -116 3 -30 4 -28 5 10 0 25 -3 68 -7 97 -4
28 -4 109 1 180 4 70 8 189 9 263 3 186 18 111 29 -150 8 -194 8 -194 5 75 -2
149 -9 326 -15 395 -12 137 -6 506 11 658 10 92 7 140 -5 65z"/>
<path d="M3754 4403 c-17 -121 -76 -420 -99 -505 -14 -51 -37 -135 -51 -187
-44 -159 -150 -461 -197 -563 -45 -96 -134 -257 -182 -330 -41 -61 -21 -43 33
30 107 145 210 367 288 626 30 98 61 191 68 205 8 14 26 76 40 136 15 61 33
126 40 145 22 57 85 490 71 490 -2 0 -7 -21 -11 -47z"/>
<path d="M6348 4383 c6 -2 18 -2 25 0 6 3 1 5 -13 5 -14 0 -19 -2 -12 -5z"/>
<path d="M6308 4373 c7 -3 16 -2 19 1 4 3 -2 6 -13 5 -11 0 -14 -3 -6 -6z"/>
<path d="M783 4305 c0 -22 2 -30 4 -17 2 12 2 30 0 40 -3 9 -5 -1 -4 -23z"/>
<path d="M791 4244 c0 -11 3 -14 6 -6 3 7 2 16 -1 19 -3 4 -6 -2 -5 -13z"/>
<path d="M4100 4191 c0 -52 -44 -307 -70 -411 -24 -95 -55 -174 -139 -358
-123 -270 -222 -403 -438 -584 -40 -33 -73 -63 -73 -65 0 -2 28 17 62 44 147
115 241 218 368 405 36 52 76 103 90 111 14 9 37 26 52 38 15 13 30 20 34 17
3 -3 -8 -61 -25 -128 -17 -67 -31 -134 -30 -149 1 -32 0 -35 39 134 17 77 40
161 50 188 10 26 14 47 9 47 -6 0 -27 -9 -49 -20 -22 -11 -44 -20 -49 -20 -6
0 1 26 15 58 15 31 37 84 51 117 38 92 43 89 39 -21 -5 -106 -4 -104 20 86 8
69 22 172 29 230 17 130 30 320 21 320 -3 0 -6 -18 -6 -39z"/>
<path d="M4752 4170 c0 -14 2 -19 5 -12 2 6 2 18 0 25 -3 6 -5 1 -5 -13z"/>
<path d="M5620 4135 c0 -46 32 -150 68 -222 80 -161 135 -351 189 -658 26
-148 28 -178 27 -410 0 -146 -6 -283 -13 -330 -32 -206 -111 -429 -217 -612
-18 -30 -22 -43 -11 -35 52 42 213 448 237 597 11 70 19 90 27 68 2 -6 27 -23
56 -37 29 -15 91 -56 139 -91 97 -72 129 -88 46 -23 -29 23 -57 47 -63 54 -5
7 -26 21 -45 32 -28 15 -39 30 -54 75 -22 65 -16 80 34 80 17 0 30 6 30 13 0
7 5 14 12 16 7 3 13 37 16 91 3 57 9 91 18 98 8 6 14 18 14 26 0 23 46 95 91
141 38 40 44 43 78 37 20 -4 40 -14 45 -22 7 -13 10 -13 17 -2 7 11 9 11 9 -2
0 -9 7 -19 15 -23 13 -4 15 8 15 74 0 43 -4 90 -9 103 -6 14 -7 28 -3 31 3 4
8 17 9 31 3 20 -9 31 -74 72 -161 100 -357 257 -346 277 3 6 3 8 -2 4 -10 -10
-81 53 -120 106 -17 23 -45 56 -62 74 -17 18 -55 80 -84 137 -43 87 -51 112
-47 143 4 28 0 45 -18 72 -19 27 -24 30 -24 15z m241 -482 l24 -26 -27 19
c-15 10 -28 22 -28 27 0 12 5 8 31 -20z m109 -108 c13 -14 21 -25 18 -25 -2 0
-15 11 -28 25 -13 14 -21 25 -18 25 2 0 15 -11 28 -25z m266 -212 c19 -12 22
-18 12 -25 -9 -7 -6 -8 11 -4 23 5 100 -38 116 -64 10 -17 -1 -11 -40 20 -21
17 -45 28 -54 25 -20 -6 -46 10 -46 27 0 7 -9 12 -20 11 -12 -1 -14 0 -6 4 11
4 11 7 0 14 -8 5 -10 9 -6 9 4 0 19 -7 33 -17z m54 -73 c0 -5 9 -10 20 -10 13
0 18 -5 13 -15 -5 -14 -7 -14 -23 0 -9 8 -22 15 -28 15 -7 0 -12 5 -12 10 0 6
7 10 15 10 8 0 15 -4 15 -10z m-353 -532 c-1 -46 -3 -9 -3 82 0 91 2 128 3 83
2 -46 2 -120 0 -165z"/>
<path d="M4762 4125 c0 -11 4 -31 8 -45 6 -20 8 -21 8 -5 0 11 -4 31 -8 45 -6
20 -8 21 -8 5z"/>
<path d="M4781 4034 c0 -11 3 -14 6 -6 3 7 2 16 -1 19 -3 4 -6 -2 -5 -13z"/>
<path d="M3665 3798 c-35 -171 -66 -276 -120 -414 -43 -111 -96 -232 -117
-269 -6 -11 -38 -72 -71 -135 -33 -63 -84 -155 -114 -203 -101 -167 -46 -96
78 101 130 206 280 575 337 832 33 151 46 220 39 220 -2 0 -16 -60 -32 -132z"/>
<path d="M1722 3900 c0 -14 2 -19 5 -12 2 6 2 18 0 25 -3 6 -5 1 -5 -13z"/>
<path d="M1712 3850 c0 -14 2 -19 5 -12 2 6 2 18 0 25 -3 6 -5 1 -5 -13z"/>
<path d="M1696 3774 c-3 -26 -4 -49 -2 -52 3 -2 8 17 11 43 4 25 5 48 3 51 -3
2 -8 -17 -12 -42z"/>
<path d="M2014 3705 c-7 -19 -14 -38 -14 -43 0 -23 -44 -62 -75 -68 -30 -5
-35 -10 -34 -33 1 -14 3 -19 6 -10 2 9 24 24 49 34 24 9 44 18 44 21 0 2 11
33 25 69 25 67 25 91 -1 30z"/>
<path d="M2224 3644 c-18 -14 -18 -14 6 -3 31 14 36 19 24 19 -6 0 -19 -7 -30
-16z"/>
<path d="M1952 3528 c-6 -23 -9 -44 -7 -46 2 -2 9 15 15 38 6 23 9 44 7 46 -2
3 -9 -14 -15 -38z"/>
<path d="M4208 3505 c-9 -12 -25 -54 -37 -95 -33 -117 -105 -286 -139 -325
-18 -19 -38 -48 -47 -64 -8 -16 -20 -31 -27 -34 -9 -4 -9 -6 2 -6 17 -1 42 13
41 22 -1 17 37 67 62 82 47 28 165 55 247 56 l75 2 -75 9 c-61 8 -89 6 -148
-7 -40 -10 -75 -15 -78 -12 -3 3 9 36 27 73 37 79 79 199 79 225 0 10 10 30
23 45 23 26 25 27 188 32 198 7 160 23 -47 19 -119 -2 -132 -4 -146 -22z"/>
<path d="M4110 3474 l-35 -14 45 5 c25 3 49 10 55 16 14 14 -24 10 -65 -7z"/>
<path d="M2270 3340 c-14 -4 8 -5 50 -2 41 2 77 6 79 8 8 7 -104 2 -129 -6z"/>
<path d="M2475 3330 c17 -4 39 -8 50 -8 16 0 15 2 -5 8 -14 4 -36 8 -50 8 -22
0 -22 -1 5 -8z"/>
<path d="M2640 3300 c118 -39 300 -79 300 -66 0 11 -47 25 -177 51 -128 25
-169 30 -123 15z"/>
<path d="M1221 3214 c0 -11 3 -14 6 -6 3 7 2 16 -1 19 -3 4 -6 -2 -5 -13z"/>
<path d="M2880 3134 c0 -8 5 -12 10 -9 6 4 8 11 5 16 -9 14 -15 11 -15 -7z"/>
<path d="M3965 3070 c-3 -6 1 -7 9 -4 18 7 21 14 7 14 -6 0 -13 -4 -16 -10z"/>
<path d="M3905 3027 c-21 -51 -18 -59 5 -13 11 22 18 42 15 44 -3 3 -12 -11
-20 -31z"/>
<path d="M3599 2873 c-13 -16 -12 -17 4 -4 16 13 21 21 13 21 -2 0 -10 -8 -17
-17z"/>
<path d="M3121 2764 c0 -11 3 -14 6 -6 3 7 2 16 -1 19 -3 4 -6 -2 -5 -13z"/>
<path d="M3349 2753 c-13 -16 -12 -17 4 -4 9 7 17 15 17 17 0 8 -8 3 -21 -13z"/>
<path d="M2647 2717 c-5 -13 0 -20 20 -28 14 -5 31 -8 37 -6 6 3 -1 9 -15 15
-15 6 -29 16 -31 23 -3 9 -6 7 -11 -4z"/>
<path d="M3101 2693 c-1 -6 -4 -20 -7 -30 -5 -17 -5 -17 6 0 6 10 9 23 6 30
-3 9 -5 9 -5 0z"/>
<path d="M4312 2650 c0 -19 2 -27 5 -17 2 9 2 25 0 35 -3 9 -5 1 -5 -18z"/>
<path d="M2158 2593 c12 -2 32 -2 45 0 12 2 2 4 -23 4 -25 0 -35 -2 -22 -4z"/>
<path d="M3085 2570 c-10 -11 -13 -20 -8 -20 13 0 38 29 31 35 -3 3 -13 -4
-23 -15z"/>
<path d="M2185 2570 c3 -5 8 -10 11 -10 2 0 4 5 4 10 0 6 -5 10 -11 10 -5 0
-7 -4 -4 -10z"/>
<path d="M1811 2540 c0 -8 4 -24 9 -35 l9 -20 0 20 c0 11 -4 27 -9 35 -9 13
-10 13 -9 0z"/>
<path d="M5622 2530 c0 -14 2 -19 5 -12 2 6 2 18 0 25 -3 6 -5 1 -5 -13z"/>
<path d="M3958 2482 c-45 -9 11 -64 87 -86 188 -55 262 -56 310 -6 40 42 27
54 -24 20 -35 -24 -55 -30 -95 -30 -97 1 -220 42 -246 83 -9 14 -22 21 -32 19z"/>
<path d="M5596 2478 c-14 -40 -15 -48 -4 -48 7 0 8 -16 4 -47 -15 -115 -14
-123 5 -49 14 60 17 90 11 120 -7 30 -11 36 -16 24z"/>
<path d="M1844 2448 c36 -113 49 -148 57 -148 12 0 13 -3 -15 68 -17 42 -20
62 -13 65 7 2 2 9 -10 16 -18 9 -22 9 -19 -1z"/>
<path d="M994 2386 c-3 -21 -4 -39 -1 -42 2 -3 8 11 11 32 4 20 5 38 2 41 -2
3 -8 -11 -12 -31z"/>
<path d="M5564 2399 c-3 -6 -1 -16 5 -22 8 -8 11 -5 11 11 0 24 -5 28 -16 11z"/>
<path d="M5547 2343 c-10 -9 -9 -53 1 -53 5 0 9 14 10 30 1 32 -1 34 -11 23z"/>
<path d="M982 2285 c0 -16 2 -22 5 -12 2 9 2 23 0 30 -3 6 -5 -1 -5 -18z"/>
<path d="M966 2201 c-4 -24 -5 -46 -2 -48 7 -7 19 63 14 79 -3 7 -8 -7 -12
-31z"/>
<path d="M1180 2114 c45 -140 66 -198 76 -212 7 -10 -5 37 -27 103 -21 65 -44
124 -49 129 -6 6 -6 -1 0 -20z"/>
<path d="M4471 1811 c-24 -33 -28 -56 -5 -26 20 26 36 55 30 55 -3 0 -14 -13
-25 -29z"/>
<path d="M3020 1610 c28 -22 181 -80 208 -79 9 0 -26 16 -78 35 -52 19 -99 39
-105 43 -5 4 -19 11 -30 15 -16 5 -15 2 5 -14z"/>
<path d="M1066 1559 c-8 -42 0 -50 9 -9 4 17 5 34 2 36 -2 3 -7 -10 -11 -27z"/>
<path d="M3520 1560 c-25 -10 -58 -21 -74 -25 -15 -3 -26 -8 -23 -11 11 -11
127 19 143 37 21 24 11 23 -46 -1z"/>
<path d="M1122 1370 c0 -14 2 -19 5 -12 2 6 2 18 0 25 -3 6 -5 1 -5 -13z"/>
<path d="M1257 1120 c-4 -30 -6 -82 -6 -115 1 -46 4 -36 10 45 10 113 7 160
-4 70z"/>
<path d="M1070 670 l-25 -21 30 13 c38 15 54 28 35 28 -8 0 -26 -9 -40 -20z"/>
<path d="M1661 514 c0 -11 3 -14 6 -6 3 7 2 16 -1 19 -3 4 -6 -2 -5 -13z"/>
<path d="M1742 400 c0 -14 2 -19 5 -12 2 6 2 18 0 25 -3 6 -5 1 -5 -13z"/>
<path d="M1575 320 c3 -5 8 -10 11 -10 2 0 4 5 4 10 0 6 -5 10 -11 10 -5 0 -7
-4 -4 -10z"/>
<path d="M2001 283 c-1 -13 8 -50 20 -83 11 -33 18 -64 14 -70 -3 -5 1 -10 10
-10 17 0 14 29 -13 90 -8 19 -18 49 -22 65 -6 24 -8 26 -9 8z"/>
<path d="M1742 230 c0 -14 2 -19 5 -12 2 6 2 18 0 25 -3 6 -5 1 -5 -13z"/>
<path d="M1983 185 c0 -22 2 -30 4 -17 2 12 2 30 0 40 -3 9 -5 -1 -4 -23z"/>
</g>
</svg>
